<?xml version="1.0" encoding="utf-8"?>
<svg id="visual" viewBox="0 0 2000 2000" width="2000" height="2000" xmlns="http://www.w3.org/2000/svg" version="1.1">
  <path d="M 0 1080.8 C 54.6 1151.8 109.1 1222.8 173.8 1238.6 C 238.5 1254.3 313.3 1214.8 375.3 1220.7 C 437.4 1226.5 486.7 1277.6 546.2 1315.1 C 605.7 1352.6 675.3 1376.4 718.7 1426.9 C 762 1477.3 779.1 1554.3 778.4 1625.1 C 777.8 1695.9 759.4 1760.5 779.9 1822 C 800.5 1883.4 859.8 1941.7 919.2 2000 L 0 2000 L 0 1080.8 Z" fill="#c7ddeb"/>
  <path d="M 0 1234 C 45.5 1293.2 90.9 1352.3 144.8 1365.5 C 198.7 1378.6 261 1345.7 312.8 1350.6 C 364.5 1355.4 405.6 1398 455.1 1429.3 C 504.7 1460.5 562.8 1480.4 598.9 1522.4 C 635 1564.4 649.2 1628.6 648.7 1687.6 C 648.2 1746.6 632.9 1800.4 650 1851.7 C 667 1902.9 716.5 1951.4 766 2000 L 0 2000 L 0 1234 Z" fill="#aec9dd"/>
  <path d="M 0 1387.2 C 36.4 1434.5 72.7 1481.9 115.9 1492.4 C 159 1502.9 208.8 1476.6 250.2 1480.4 C 291.6 1484.3 324.5 1518.4 364.1 1543.4 C 403.8 1568.4 450.2 1584.3 479.1 1617.9 C 508 1651.5 519.4 1702.9 519 1750.1 C 518.5 1797.3 506.3 1840.4 520 1881.3 C 533.6 1922.3 573.2 1961.1 612.8 2000 L 0 2000 L 0 1387.2 Z" fill="#96b4d0"/>
  <path d="M 0 1540.4 C 27.3 1575.9 54.6 1611.4 86.9 1619.3 C 119.2 1627.2 156.6 1607.4 187.7 1610.3 C 218.7 1613.2 243.3 1638.8 273.1 1657.6 C 302.8 1676.3 337.7 1688.2 359.3 1713.4 C 381 1738.6 389.5 1777.2 389.2 1812.6 C 388.9 1848 379.7 1880.3 390 1911 C 400.2 1941.7 429.9 1970.9 459.6 2000 L 0 2000 L 0 1540.4 Z" fill="#81a0c2"/>
  <path d="M 0 1693.6 C 18.2 1717.3 36.4 1740.9 57.9 1746.2 C 79.5 1751.4 104.4 1738.3 125.1 1740.2 C 145.8 1742.2 162.2 1759.2 182.1 1771.7 C 201.9 1784.2 225.1 1792.1 239.6 1809 C 254 1825.8 259.7 1851.4 259.5 1875 C 259.3 1898.6 253.1 1920.2 260 1940.7 C 266.8 1961.1 286.6 1980.6 306.4 2000 L 0 2000 L 0 1693.6 Z" fill="#6d8cb5"/>
  <path d="M 0 1846.8 C 9.1 1858.6 18.2 1870.5 29 1873.1 C 39.7 1875.7 52.2 1869.1 62.6 1870.1 C 72.9 1871.1 81.1 1879.6 91 1885.9 C 100.9 1892.1 112.6 1896.1 119.8 1904.5 C 127 1912.9 129.8 1925.7 129.7 1937.5 C 129.6 1949.3 126.6 1960.1 130 1970.3 C 133.4 1980.6 143.3 1990.3 153.2 2000 L 0 2000 L 0 1846.8 Z" fill="#6482ae"/>
</svg>