<?xml version="1.0" encoding="utf-8"?>
<svg xmlns="http://www.w3.org/2000/svg" width="500" zoomAndPan="magnify" viewBox="110.768 134.265 176.96 104.792" height="500" preserveAspectRatio="xMidYMid meet" version="1.0">
  <defs>
    <g/>
  </defs>
  <g>
    <title>fisheye</title>
    <g fill="#ff0000" fill-opacity="1" style="" transform="matrix(1, 0, 0, 1, 0.431943, 0)">
      <title>slashred</title>
      <g transform="translate(208.474512, 214.205954)">
        <g>
          <path d="M 15.71875 -53.84375 L 3.484375 0.890625 C 3.367188 1.546875 3.039062 2.078125 2.5 2.484375 C 1.957031 2.890625 1.347656 3.09375 0.671875 3.09375 C -0.0664062 3.03125 -0.679688 2.71875 -1.171875 2.15625 C -1.660156 1.601562 -1.898438 0.9375 -1.890625 0.15625 C -1.898438 0.0625 -1.875 -0.132812 -1.8125 -0.4375 L 10.40625 -55.09375 C 10.570312 -55.8125 10.925781 -56.34375 11.46875 -56.6875 C 12.007812 -57.039062 12.601562 -57.210938 13.25 -57.203125 C 13.925781 -57.140625 14.519531 -56.832031 15.03125 -56.28125 C 15.539062 -55.738281 15.796875 -55.101562 15.796875 -54.375 C 15.816406 -54.226562 15.789062 -54.050781 15.71875 -53.84375 Z M 15.71875 -53.84375 " style="fill: rgb(240, 0, 175);"/>
        </g>
      </g>
    </g>
    <g fill="#00ffff" fill-opacity="1" style="" transform="matrix(1, 0, 0, 1, 0.431943, 0)">
      <title>slashblue</title>
      <g transform="translate(205.760126, 214.535954)">
        <g>
          <path d="M 15.71875 -53.84375 L 3.484375 0.890625 C 3.367188 1.546875 3.039062 2.078125 2.5 2.484375 C 1.957031 2.890625 1.347656 3.09375 0.671875 3.09375 C -0.0664062 3.03125 -0.679688 2.71875 -1.171875 2.15625 C -1.660156 1.601562 -1.898438 0.9375 -1.890625 0.15625 C -1.898438 0.0625 -1.875 -0.132812 -1.8125 -0.4375 L 10.40625 -55.09375 C 10.570312 -55.8125 10.925781 -56.34375 11.46875 -56.6875 C 12.007812 -57.039062 12.601562 -57.210938 13.25 -57.203125 C 13.925781 -57.140625 14.519531 -56.832031 15.03125 -56.28125 C 15.539062 -55.738281 15.796875 -55.101562 15.796875 -54.375 C 15.816406 -54.226562 15.789062 -54.050781 15.71875 -53.84375 Z M 15.71875 -53.84375 " style="fill: rgb(85, 239, 11);"/>
        </g>
      </g>
    </g>
    <g fill="#000000" fill-opacity="1" style="opacity: 0.9;" transform="matrix(1, 0, 0, 1, 0.431943, 0)">
      <title>slashblack</title>
      <g transform="translate(207.117319, 214.370954)">
        <g>
          <path d="M 15.71875 -53.84375 L 3.484375 0.890625 C 3.367188 1.546875 3.039062 2.078125 2.5 2.484375 C 1.957031 2.890625 1.347656 3.09375 0.671875 3.09375 C -0.0664062 3.03125 -0.679688 2.71875 -1.171875 2.15625 C -1.660156 1.601562 -1.898438 0.9375 -1.890625 0.15625 C -1.898438 0.0625 -1.875 -0.132812 -1.8125 -0.4375 L 10.40625 -55.09375 C 10.570312 -55.8125 10.925781 -56.34375 11.46875 -56.6875 C 12.007812 -57.039062 12.601562 -57.210938 13.25 -57.203125 C 13.925781 -57.140625 14.519531 -56.832031 15.03125 -56.28125 C 15.539062 -55.738281 15.796875 -55.101562 15.796875 -54.375 C 15.816406 -54.226562 15.789062 -54.050781 15.71875 -53.84375 Z M 15.71875 -53.84375 "/>
        </g>
      </g>
    </g>
    <g fill="#ff0000" fill-opacity="1" style="">
      <title>frontred</title>
      <g transform="translate(220.324545, 217.294854)">
        <g>
          <path d="M 8.03125 -14.390625 L 37.96875 -29.4375 L 8.03125 -44.484375 C 7.363281 -44.816406 6.804688 -45.257812 6.359375 -45.8125 C 5.910156 -46.375 5.6875 -46.960938 5.6875 -47.578125 C 5.6875 -48.691406 6.144531 -49.640625 7.0625 -50.421875 C 7.988281 -51.203125 8.976562 -51.316406 10.03125 -50.765625 L 43.15625 -33.625 C 44.101562 -33.0625 44.910156 -32.53125 45.578125 -32.03125 C 46.242188 -31.53125 46.578125 -30.664062 46.578125 -29.4375 C 46.578125 -28.269531 46.242188 -27.429688 45.578125 -26.921875 C 44.910156 -26.421875 44.101562 -25.894531 43.15625 -25.34375 L 10.03125 -8.1875 C 8.976562 -7.632812 7.988281 -7.75 7.0625 -8.53125 C 6.144531 -9.3125 5.6875 -10.257812 5.6875 -11.375 C 5.6875 -11.988281 5.910156 -12.554688 6.359375 -13.078125 C 6.804688 -13.609375 7.363281 -14.046875 8.03125 -14.390625 Z M 8.03125 -14.390625 " style="fill: rgb(240, 0, 175);"/>
        </g>
      </g>
    </g>
    <g fill="#00ffff" fill-opacity="1" style="">
      <title>frontblue</title>
      <g transform="translate(217.188053, 217.294854)">
        <g>
          <path d="M 8.03125 -14.390625 L 37.96875 -29.4375 L 8.03125 -44.484375 C 7.363281 -44.816406 6.804688 -45.257812 6.359375 -45.8125 C 5.910156 -46.375 5.6875 -46.960938 5.6875 -47.578125 C 5.6875 -48.691406 6.144531 -49.640625 7.0625 -50.421875 C 7.988281 -51.203125 8.976562 -51.316406 10.03125 -50.765625 L 43.15625 -33.625 C 44.101562 -33.0625 44.910156 -32.53125 45.578125 -32.03125 C 46.242188 -31.53125 46.578125 -30.664062 46.578125 -29.4375 C 46.578125 -28.269531 46.242188 -27.429688 45.578125 -26.921875 C 44.910156 -26.421875 44.101562 -25.894531 43.15625 -25.34375 L 10.03125 -8.1875 C 8.976562 -7.632812 7.988281 -7.75 7.0625 -8.53125 C 6.144531 -9.3125 5.6875 -10.257812 5.6875 -11.375 C 5.6875 -11.988281 5.910156 -12.554688 6.359375 -13.078125 C 6.804688 -13.609375 7.363281 -14.046875 8.03125 -14.390625 Z M 8.03125 -14.390625 " style="fill: rgb(85, 239, 11);"/>
        </g>
      </g>
    </g>
    <g fill="#000000" fill-opacity="1" style="">
      <title>frontblack</title>
      <g transform="translate(218.756299, 217.294854)">
        <g>
          <path d="M 8.03125 -14.390625 L 37.96875 -29.4375 L 8.03125 -44.484375 C 7.363281 -44.816406 6.804688 -45.257812 6.359375 -45.8125 C 5.910156 -46.375 5.6875 -46.960938 5.6875 -47.578125 C 5.6875 -48.691406 6.144531 -49.640625 7.0625 -50.421875 C 7.988281 -51.203125 8.976562 -51.316406 10.03125 -50.765625 L 43.15625 -33.625 C 44.101562 -33.0625 44.910156 -32.53125 45.578125 -32.03125 C 46.242188 -31.53125 46.578125 -30.664062 46.578125 -29.4375 C 46.578125 -28.269531 46.242188 -27.429688 45.578125 -26.921875 C 44.910156 -26.421875 44.101562 -25.894531 43.15625 -25.34375 L 10.03125 -8.1875 C 8.976562 -7.632812 7.988281 -7.75 7.0625 -8.53125 C 6.144531 -9.3125 5.6875 -10.257812 5.6875 -11.375 C 5.6875 -11.988281 5.910156 -12.554688 6.359375 -13.078125 C 6.804688 -13.609375 7.363281 -14.046875 8.03125 -14.390625 Z M 8.03125 -14.390625 "/>
        </g>
      </g>
    </g>
    <g fill="#ff0000" fill-opacity="1" style="" transform="matrix(0.727267, 0, 0, 0.727267, 62.578196, 49.572984)">
      <title>eyered</title>
      <g transform="translate(223.064755, 183.120124)">
        <g>
          <path d="M 11.890625 -3.1875 C 11.890625 -2.144531 11.519531 -1.234375 10.78125 -0.453125 C 10.050781 0.316406 9.171875 0.703125 8.140625 0.703125 C 7.097656 0.703125 6.195312 0.316406 5.4375 -0.453125 C 4.6875 -1.234375 4.3125 -2.144531 4.3125 -3.1875 C 4.3125 -4.21875 4.6875 -5.097656 5.4375 -5.828125 C 6.195312 -6.566406 7.097656 -6.9375 8.140625 -6.9375 C 9.171875 -6.9375 10.050781 -6.566406 10.78125 -5.828125 C 11.519531 -5.097656 11.890625 -4.21875 11.890625 -3.1875 Z M 11.890625 -3.1875 " style="fill: rgb(240, 0, 175);"/>
        </g>
      </g>
    </g>
    <g fill="#00ffff" fill-opacity="1" style="" transform="matrix(0.727267, 0, 0, 0.727267, 62.578196, 49.572984)">
      <title>eyeblue</title>
      <g transform="translate(220.410811, 183.120124)">
        <g>
          <path d="M 11.890625 -3.1875 C 11.890625 -2.144531 11.519531 -1.234375 10.78125 -0.453125 C 10.050781 0.316406 9.171875 0.703125 8.140625 0.703125 C 7.097656 0.703125 6.195312 0.316406 5.4375 -0.453125 C 4.6875 -1.234375 4.3125 -2.144531 4.3125 -3.1875 C 4.3125 -4.21875 4.6875 -5.097656 5.4375 -5.828125 C 6.195312 -6.566406 7.097656 -6.9375 8.140625 -6.9375 C 9.171875 -6.9375 10.050781 -6.566406 10.78125 -5.828125 C 11.519531 -5.097656 11.890625 -4.21875 11.890625 -3.1875 Z M 11.890625 -3.1875 " style="fill: rgb(85, 239, 11);"/>
        </g>
      </g>
    </g>
    <g fill="#000000" fill-opacity="1" style="" transform="matrix(0.727267, 0, 0, 0.727267, 62.578196, 49.572984)">
      <title>eyeblack</title>
      <g transform="translate(221.737783, 183.120124)">
        <g>
          <path d="M 11.890625 -3.1875 C 11.890625 -2.144531 11.519531 -1.234375 10.78125 -0.453125 C 10.050781 0.316406 9.171875 0.703125 8.140625 0.703125 C 7.097656 0.703125 6.195312 0.316406 5.4375 -0.453125 C 4.6875 -1.234375 4.3125 -2.144531 4.3125 -3.1875 C 4.3125 -4.21875 4.6875 -5.097656 5.4375 -5.828125 C 6.195312 -6.566406 7.097656 -6.9375 8.140625 -6.9375 C 9.171875 -6.9375 10.050781 -6.566406 10.78125 -5.828125 C 11.519531 -5.097656 11.890625 -4.21875 11.890625 -3.1875 Z M 11.890625 -3.1875 "/>
        </g>
      </g>
    </g>
    <g fill="#ff0000" fill-opacity="1" style="" transform="matrix(0.706433, 0, 0, 0.706433, -26.84663, 55.100105)">
      <title>frontred</title>
      <g transform="translate(220.324545, 217.294854)">
        <g>
          <path d="M 8.03125 -14.390625 L 37.96875 -29.4375 L 8.03125 -44.484375 C 7.363281 -44.816406 6.804688 -45.257812 6.359375 -45.8125 C 5.910156 -46.375 5.6875 -46.960938 5.6875 -47.578125 C 5.6875 -48.691406 6.144531 -49.640625 7.0625 -50.421875 C 7.988281 -51.203125 8.976562 -51.316406 10.03125 -50.765625 L 43.15625 -33.625 C 44.101562 -33.0625 44.910156 -32.53125 45.578125 -32.03125 C 46.242188 -31.53125 46.578125 -30.664062 46.578125 -29.4375 C 46.578125 -28.269531 46.242188 -27.429688 45.578125 -26.921875 C 44.910156 -26.421875 44.101562 -25.894531 43.15625 -25.34375 L 10.03125 -8.1875 C 8.976562 -7.632812 7.988281 -7.75 7.0625 -8.53125 C 6.144531 -9.3125 5.6875 -10.257812 5.6875 -11.375 C 5.6875 -11.988281 5.910156 -12.554688 6.359375 -13.078125 C 6.804688 -13.609375 7.363281 -14.046875 8.03125 -14.390625 Z M 8.03125 -14.390625 " style="fill: rgb(240, 0, 175);"/>
        </g>
      </g>
    </g>
    <g fill="#00ffff" fill-opacity="1" style="" transform="matrix(0.706433, 0, 0, 0.706433, -26.84663, 55.100105)">
      <title>frontblue</title>
      <g transform="translate(217.188053, 217.294854)">
        <g>
          <path d="M 8.03125 -14.390625 L 37.96875 -29.4375 L 8.03125 -44.484375 C 7.363281 -44.816406 6.804688 -45.257812 6.359375 -45.8125 C 5.910156 -46.375 5.6875 -46.960938 5.6875 -47.578125 C 5.6875 -48.691406 6.144531 -49.640625 7.0625 -50.421875 C 7.988281 -51.203125 8.976562 -51.316406 10.03125 -50.765625 L 43.15625 -33.625 C 44.101562 -33.0625 44.910156 -32.53125 45.578125 -32.03125 C 46.242188 -31.53125 46.578125 -30.664062 46.578125 -29.4375 C 46.578125 -28.269531 46.242188 -27.429688 45.578125 -26.921875 C 44.910156 -26.421875 44.101562 -25.894531 43.15625 -25.34375 L 10.03125 -8.1875 C 8.976562 -7.632812 7.988281 -7.75 7.0625 -8.53125 C 6.144531 -9.3125 5.6875 -10.257812 5.6875 -11.375 C 5.6875 -11.988281 5.910156 -12.554688 6.359375 -13.078125 C 6.804688 -13.609375 7.363281 -14.046875 8.03125 -14.390625 Z M 8.03125 -14.390625 " style="fill: rgb(85, 239, 11);"/>
        </g>
      </g>
    </g>
    <g fill="#ff0000" fill-opacity="1" style="">
      <title>buttred</title>
      <g transform="translate(159.365984, 217.294854)">
        <g>
          <path d="M 14.296875 -29.4375 L 44.234375 -14.390625 C 44.898438 -14.046875 45.457031 -13.609375 45.90625 -13.078125 C 46.351562 -12.554688 46.578125 -11.988281 46.578125 -11.375 C 46.578125 -10.257812 46.113281 -9.3125 45.1875 -8.53125 C 44.269531 -7.75 43.285156 -7.632812 42.234375 -8.1875 L 9.109375 -25.34375 C 8.222656 -25.894531 7.429688 -26.421875 6.734375 -26.921875 C 6.035156 -27.429688 5.6875 -28.269531 5.6875 -29.4375 C 5.6875 -30.664062 6.019531 -31.53125 6.6875 -32.03125 C 7.351562 -32.53125 8.160156 -33.0625 9.109375 -33.625 L 42.234375 -50.765625 C 43.347656 -51.148438 44.347656 -50.992188 45.234375 -50.296875 C 46.128906 -49.597656 46.578125 -48.691406 46.578125 -47.578125 C 46.578125 -46.960938 46.351562 -46.375 45.90625 -45.8125 C 45.457031 -45.257812 44.898438 -44.816406 44.234375 -44.484375 Z M 14.296875 -29.4375 " style="fill: rgb(240, 0, 175);"/>
        </g>
      </g>
    </g>
    <g fill="#00ffff" fill-opacity="1" style="">
      <title>buttblue</title>
      <g transform="translate(156.229492, 217.294854)">
        <g>
          <path d="M 14.296875 -29.4375 L 44.234375 -14.390625 C 44.898438 -14.046875 45.457031 -13.609375 45.90625 -13.078125 C 46.351562 -12.554688 46.578125 -11.988281 46.578125 -11.375 C 46.578125 -10.257812 46.113281 -9.3125 45.1875 -8.53125 C 44.269531 -7.75 43.285156 -7.632812 42.234375 -8.1875 L 9.109375 -25.34375 C 8.222656 -25.894531 7.429688 -26.421875 6.734375 -26.921875 C 6.035156 -27.429688 5.6875 -28.269531 5.6875 -29.4375 C 5.6875 -30.664062 6.019531 -31.53125 6.6875 -32.03125 C 7.351562 -32.53125 8.160156 -33.0625 9.109375 -33.625 L 42.234375 -50.765625 C 43.347656 -51.148438 44.347656 -50.992188 45.234375 -50.296875 C 46.128906 -49.597656 46.578125 -48.691406 46.578125 -47.578125 C 46.578125 -46.960938 46.351562 -46.375 45.90625 -45.8125 C 45.457031 -45.257812 44.898438 -44.816406 44.234375 -44.484375 Z M 14.296875 -29.4375 " style="fill: rgb(85, 239, 11);"/>
        </g>
      </g>
    </g>
    <g fill="#ff0000" fill-opacity="1" transform="matrix(0.893587, 0, 0, 0.893587, 21.52307, 20.632462)" style="visibility: hidden;">
      <title>tailred</title>
      <g transform="translate(125.116828, 210.131792)">
        <g>
          <path d="M 6.3125 -11.3125 L 29.859375 -23.15625 L 6.3125 -34.984375 C 5.789062 -35.242188 5.351562 -35.59375 5 -36.03125 C 4.644531 -36.476562 4.46875 -36.941406 4.46875 -37.421875 C 4.46875 -38.296875 4.828125 -39.039062 5.546875 -39.65625 C 6.273438 -40.269531 7.054688 -40.359375 7.890625 -39.921875 L 33.9375 -26.4375 C 34.675781 -26 35.304688 -25.582031 35.828125 -25.1875 C 36.359375 -24.789062 36.625 -24.113281 36.625 -23.15625 C 36.625 -22.226562 36.359375 -21.566406 35.828125 -21.171875 C 35.304688 -20.773438 34.675781 -20.359375 33.9375 -19.921875 L 7.890625 -6.4375 C 7.054688 -6 6.273438 -6.085938 5.546875 -6.703125 C 4.828125 -7.316406 4.46875 -8.0625 4.46875 -8.9375 C 4.46875 -9.425781 4.644531 -9.878906 5 -10.296875 C 5.351562 -10.710938 5.789062 -11.050781 6.3125 -11.3125 Z M 6.3125 -11.3125 " style="fill: rgb(240, 0, 175);"/>
        </g>
      </g>
    </g>
    <g fill="#00ffff" fill-opacity="1" transform="matrix(0.893587, 0, 0, 0.893587, 21.52307, 20.632462)" style="visibility: hidden;">
      <title>tailblue</title>
      <g transform="translate(122.650367, 210.131792)">
        <g>
          <path d="M 6.3125 -11.3125 L 29.859375 -23.15625 L 6.3125 -34.984375 C 5.789062 -35.242188 5.351562 -35.59375 5 -36.03125 C 4.644531 -36.476562 4.46875 -36.941406 4.46875 -37.421875 C 4.46875 -38.296875 4.828125 -39.039062 5.546875 -39.65625 C 6.273438 -40.269531 7.054688 -40.359375 7.890625 -39.921875 L 33.9375 -26.4375 C 34.675781 -26 35.304688 -25.582031 35.828125 -25.1875 C 36.359375 -24.789062 36.625 -24.113281 36.625 -23.15625 C 36.625 -22.226562 36.359375 -21.566406 35.828125 -21.171875 C 35.304688 -20.773438 34.675781 -20.359375 33.9375 -19.921875 L 7.890625 -6.4375 C 7.054688 -6 6.273438 -6.085938 5.546875 -6.703125 C 4.828125 -7.316406 4.46875 -8.0625 4.46875 -8.9375 C 4.46875 -9.425781 4.644531 -9.878906 5 -10.296875 C 5.351562 -10.710938 5.789062 -11.050781 6.3125 -11.3125 Z M 6.3125 -11.3125 " style="fill: rgb(85, 239, 11);"/>
        </g>
      </g>
    </g>
    <g fill="#000000" fill-opacity="1" style="">
      <title>buttblack</title>
      <g transform="translate(157.797738, 217.294854)">
        <g>
          <path d="M 14.296875 -29.4375 L 44.234375 -14.390625 C 44.898438 -14.046875 45.457031 -13.609375 45.90625 -13.078125 C 46.351562 -12.554688 46.578125 -11.988281 46.578125 -11.375 C 46.578125 -10.257812 46.113281 -9.3125 45.1875 -8.53125 C 44.269531 -7.75 43.285156 -7.632812 42.234375 -8.1875 L 9.109375 -25.34375 C 8.222656 -25.894531 7.429688 -26.421875 6.734375 -26.921875 C 6.035156 -27.429688 5.6875 -28.269531 5.6875 -29.4375 C 5.6875 -30.664062 6.019531 -31.53125 6.6875 -32.03125 C 7.351562 -32.53125 8.160156 -33.0625 9.109375 -33.625 L 42.234375 -50.765625 C 43.347656 -51.148438 44.347656 -50.992188 45.234375 -50.296875 C 46.128906 -49.597656 46.578125 -48.691406 46.578125 -47.578125 C 46.578125 -46.960938 46.351562 -46.375 45.90625 -45.8125 C 45.457031 -45.257812 44.898438 -44.816406 44.234375 -44.484375 Z M 14.296875 -29.4375 "/>
        </g>
      </g>
    </g>
    <g fill="#000000" fill-opacity="1" transform="matrix(0.893587, 0, 0, 0.893587, 21.52307, 20.632462)" style="visibility: hidden;">
      <title>tailblack</title>
      <g transform="translate(123.883597, 210.131792)" style="">
        <g style="">
          <path d="M 6.3125 -11.3125 L 29.859375 -23.15625 L 6.3125 -34.984375 C 5.789062 -35.242188 5.351562 -35.59375 5 -36.03125 C 4.644531 -36.476562 4.46875 -36.941406 4.46875 -37.421875 C 4.46875 -38.296875 4.828125 -39.039062 5.546875 -39.65625 C 6.273438 -40.269531 7.054688 -40.359375 7.890625 -39.921875 L 33.9375 -26.4375 C 34.675781 -26 35.304688 -25.582031 35.828125 -25.1875 C 36.359375 -24.789062 36.625 -24.113281 36.625 -23.15625 C 36.625 -22.226562 36.359375 -21.566406 35.828125 -21.171875 C 35.304688 -20.773438 34.675781 -20.359375 33.9375 -19.921875 L 7.890625 -6.4375 C 7.054688 -6 6.273438 -6.085938 5.546875 -6.703125 C 4.828125 -7.316406 4.46875 -8.0625 4.46875 -8.9375 C 4.46875 -9.425781 4.644531 -9.878906 5 -10.296875 C 5.351562 -10.710938 5.789062 -11.050781 6.3125 -11.3125 Z M 6.3125 -11.3125 "/>
        </g>
      </g>
    </g>
    <g fill="#000000" fill-opacity="1" style="" transform="matrix(0.706433, 0, 0, 0.706433, -26.84663, 55.100105)">
      <title>frontblack</title>
      <g transform="translate(218.756299, 217.294854)">
        <g>
          <path d="M 8.03125 -14.390625 L 37.96875 -29.4375 L 8.03125 -44.484375 C 7.363281 -44.816406 6.804688 -45.257812 6.359375 -45.8125 C 5.910156 -46.375 5.6875 -46.960938 5.6875 -47.578125 C 5.6875 -48.691406 6.144531 -49.640625 7.0625 -50.421875 C 7.988281 -51.203125 8.976562 -51.316406 10.03125 -50.765625 L 43.15625 -33.625 C 44.101562 -33.0625 44.910156 -32.53125 45.578125 -32.03125 C 46.242188 -31.53125 46.578125 -30.664062 46.578125 -29.4375 C 46.578125 -28.269531 46.242188 -27.429688 45.578125 -26.921875 C 44.910156 -26.421875 44.101562 -25.894531 43.15625 -25.34375 L 10.03125 -8.1875 C 8.976562 -7.632812 7.988281 -7.75 7.0625 -8.53125 C 6.144531 -9.3125 5.6875 -10.257812 5.6875 -11.375 C 5.6875 -11.988281 5.910156 -12.554688 6.359375 -13.078125 C 6.804688 -13.609375 7.363281 -14.046875 8.03125 -14.390625 Z M 8.03125 -14.390625 "/>
        </g>
      </g>
    </g>
  </g>
</svg>