<?xml version="1.0" encoding="utf-8"?>
<svg id="visual" viewBox="0 0 2000 2000" width="2000" height="2000" xmlns="http://www.w3.org/2000/svg" version="1.1" xmlns:bx="https://boxy-svg.com">
  <defs>
    <bx:grid x="0" y="0" width="187.156" height="164.22"/>
  </defs>
  <g>
    <g>
      <path d="M 2000 919.2 C 1940.9 877.2 1881.9 835.1 1812 823.8 C 1742.1 812.5 1661.3 832 1618.6 792 C 1576 751.9 1571.4 652.3 1508.1 616.9 C 1444.7 581.4 1322.6 610.1 1286.2 569.2 C 1249.8 528.4 1299.2 417.9 1273.8 349.7 C 1248.5 281.6 1148.4 255.8 1103.8 204.5 C 1059.2 153.3 1070 76.7 1080.8 0 L 2000 0 L 2000 919.2 Z" fill="#c7ddeb" style="stroke-width: 0px;"/>
      <path d="M 2000 766 C 1950.8 731 1901.6 695.9 1843.3 686.5 C 1785 677.1 1717.7 693.3 1682.2 660 C 1646.6 626.6 1642.8 543.6 1590.1 514.1 C 1537.3 484.5 1435.5 508.4 1405.2 474.4 C 1374.8 440.3 1416 348.2 1394.8 291.4 C 1373.7 234.6 1290.4 213.1 1253.2 170.5 C 1216 127.8 1225 63.9 1234 0 L 2000 0 L 2000 766 Z" fill="#aec9dd" style="stroke-width: 0px;"/>
      <path d="M 2000 612.8 C 1960.6 584.8 1921.3 556.7 1874.6 549.2 C 1828 541.7 1774.2 554.7 1745.7 528 C 1717.3 501.3 1714.3 434.9 1672 411.2 C 1629.8 387.6 1548.4 406.8 1524.1 379.5 C 1499.9 352.2 1532.8 278.6 1515.9 233.1 C 1499 187.7 1432.3 170.5 1402.5 136.4 C 1372.8 102.2 1380 51.1 1387.2 0 L 2000 0 L 2000 612.8 Z" fill="#96b4d0" style="stroke-width: 0px;"/>
      <path d="M 2000 459.6 C 1970.5 438.6 1940.9 417.6 1906 411.9 C 1871 406.3 1830.6 416 1809.3 396 C 1788 375.9 1785.7 326.2 1754 308.4 C 1722.4 290.7 1661.3 305.1 1643.1 284.6 C 1624.9 264.2 1649.6 208.9 1636.9 174.9 C 1624.2 140.8 1574.2 127.9 1551.9 102.3 C 1529.6 76.7 1535 38.3 1540.4 0 L 2000 0 L 2000 459.6 Z" fill="#81a0c2" style="stroke-width: 0px;"/>
      <path d="M 2000 306.4 C 1980.3 292.4 1960.6 278.4 1937.3 274.6 C 1914 270.8 1887.1 277.3 1872.9 264 C 1858.7 250.6 1857.1 217.4 1836 205.6 C 1814.9 193.8 1774.2 203.4 1762.1 189.7 C 1749.9 176.1 1766.4 139.3 1757.9 116.6 C 1749.5 93.9 1716.1 85.3 1701.3 68.2 C 1686.4 51.1 1690 25.6 1693.6 0 L 2000 0 L 2000 306.4 Z" fill="#6d8cb5" style="stroke-width: 0px;"/>
    </g>
    <path d="M 2000 153.2 C 1990.2 146.2 1980.3 139.2 1968.7 137.3 C 1957 135.4 1943.5 138.7 1936.4 132 C 1929.3 125.3 1928.6 108.7 1918 102.8 C 1907.5 96.9 1887.1 101.7 1881 94.9 C 1875 88.1 1883.2 69.6 1879 58.3 C 1874.7 46.9 1858.1 42.6 1850.6 34.1 C 1843.2 25.6 1845 12.8 1846.8 0 L 2000 0 L 2000 153.2 Z" fill="#6482ae" style="stroke-width: 0px;"/>
  </g>
</svg>